<svg version="1.1" id="Layer_1" xmlns="http://www.w3.org/2000/svg" x="0" y="0" viewBox="0 0 300 95.86" style="enable-background:new 0 0 300 95.86" xml:space="preserve"><style>.st0{fill:#4a00e0}.st1{fill:#e2e8f0}</style><path class="st0" d="M32.01 95.86H0l17.13-63.94h32.01zM80.69 63.96H48.68L65.82 0h32.01z"/><path class="st1" d="M147.96 47.71c0 3.29-.58 6.26-1.73 8.91-1.11 2.48-2.75 4.39-4.9 5.73-2.16 1.35-4.73 2.02-7.72 2.02-4.36 0-7.69-1.47-10-4.42v16.53h-8.84V31.82h8.65v3.84c2.35-3.16 5.74-4.74 10.19-4.74 2.99 0 5.56.68 7.72 2.05 2.16 1.37 3.79 3.29 4.9 5.77 1.15 2.57 1.73 5.56 1.73 8.97zm-9.49 0c0-2.26-.3-4.1-.9-5.51-.56-1.28-1.41-2.24-2.56-2.88-1.15-.64-2.52-.96-4.1-.96-2.35 0-4.16.73-5.45 2.18-1.28 1.45-1.92 3.55-1.92 6.28v1.67c0 2.73.65 4.84 1.95 6.31 1.3 1.47 3.11 2.21 5.41 2.21 1.58 0 2.95-.33 4.1-.99a6.022 6.022 0 0 0 2.56-2.85c.61-1.46.91-3.28.91-5.46zM182.56 31.82l-13.14 31.72-5.32 12.94h-9.03l5.45-13.2-12.49-31.46h9.74l7.56 21.98 7.75-21.98h9.48zM212.83 34.16c2.03 2.16 3.04 5.29 3.04 9.39v19.99h-8.84V45.41c0-2.48-.5-4.28-1.51-5.41-1-1.13-2.53-1.7-4.58-1.7-2.14 0-3.77.63-4.9 1.89-1.13 1.26-1.7 3.11-1.7 5.54v17.81h-8.84V31.82h8.84v3.84c2.22-3.16 5.49-4.74 9.8-4.74 3.77.01 6.66 1.09 8.69 3.24zM227.4 62.1c-2.61-1.52-4.53-3.66-5.77-6.44-1.03-2.18-1.54-4.83-1.54-7.95 0-3.16.51-5.83 1.54-8.01 1.24-2.78 3.17-4.93 5.8-6.47s5.8-2.31 9.51-2.31c3.76 0 6.95.77 9.58 2.31s4.54 3.67 5.73 6.41c1.07 2.26 1.6 4.96 1.6 8.07 0 3.08-.53 5.75-1.6 8.01-1.2 2.73-3.11 4.86-5.73 6.38-2.63 1.52-5.82 2.27-9.58 2.27-3.75 0-6.93-.76-9.54-2.27zm13.65-6.02c1.11-.66 1.94-1.59 2.5-2.79.55-1.37.83-3.22.83-5.57 0-2.39-.28-4.27-.83-5.64-1.11-2.52-3.31-3.78-6.6-3.78-1.62 0-2.99.33-4.1.99a5.805 5.805 0 0 0-2.43 2.79c-.6 1.32-.9 3.2-.9 5.64 0 2.39.3 4.25.9 5.57.51 1.2 1.32 2.13 2.43 2.79 1.11.66 2.48.99 4.1.99 1.62 0 2.99-.33 4.1-.99zM253.93 31.82h9.61l7.56 21.66 7.5-21.66h9.55l-12.11 31.72h-9.93l-12.18-31.72zM291.16 31.82H300v31.72h-8.84V31.82z"/></svg>